<?xml version="1.0" encoding="utf-8"?>
<!-- Generator: Adobe Illustrator 22.1.0, SVG Export Plug-In . SVG Version: 6.00 Build 0)  -->
<svg version="1.1" id="TheRock" xmlns="http://www.w3.org/2000/svg" xmlns:xlink="http://www.w3.org/1999/xlink" x="0px" y="0px"
	 viewBox="0 0 1080 1080" style="enable-background:new 0 0 1080 1080;" xml:space="preserve">
<style type="text/css">
	.st0{opacity:0.4;fill:#FFFFFF;enable-background:new    ;}
	.st1{fill:#F0F0F0;}
	.st2{fill:none;stroke:#000000;stroke-width:9.2892;stroke-miterlimit:10;}
</style>
<path class="st0" d="M205.1,927c1.8-0.1-34.1-40.7-34.1-40.7l-25.6,7.2l5.9-24.5l-9-25.5l-31.7-1.7l12-77.1l78.4-25.4l0.6-29.1
	l36.8-27.2l26.1-59.3l4.3-20.7l-71.6,32l-25.4,66.5l-50.5,36.3l-6.3,25.5l-17.6,17.9l3.3,52l-19.6,14.3l-5.9,24.5L55.6,888l-8.7,9.9
	l0.9,12.9l-4.6,15.1l-4.9,11.5C38.1,937.4,92.2,937.8,205.1,927z"/>
<path class="st0" d="M310,528.1c0,0,54.3-16.7,54.4-39.2c0.1-22.4-26,12.9-29.6,7.3c-3.7-5.6,20.5-24.1,33.4-20.5
	c13.1,3.7,48.3,0,57.6-20.5c9.3-20.5,16.7-11.1,22.3-29.8c5.6-18.5,24.1-63.2,9.3-42.7c-14.9,20.5-31.6,59.4-55.7,61.3
	c-24.1,1.8-40.1,9.4-52.6,22.3c-12.4,12.9-29.1,31.6-31,42.7C316.2,520,310,528.1,310,528.1z"/>
<path class="st0" d="M390.5,297.6c22.3-26,41.7-58.4,68.8-48.3c14.9,5.6-9.3,35.2-18.5,48.3c-9.3,13.1,3.7,3.7,3.7,3.7
	s35.2-39,53.9-40.9c18.5-1.8,39-3.7,65-20.5s126.4-50.1,154.2-63.2c12.4-5.9,13.1-13.1,39-20.5c26-7.4,47.8-49.2,72.4-40.9
	c0,0-29.8-20.5-89.2,5.6S671,147.1,671,147.1l-29.8,24.1l-53.9-5.6l-91,44.6l-83.5,40.9L390.5,297.6z"/>
<path class="st0" d="M541,292c0,0,17.9-22.7,33.4-16.7c24.1,9.3,16.7,20.5,27.8,24.1s20.5-9.3,26,18.5c5.6,27.8-7.4,29.8-35.2,40.9
	c-27.8,11.1-46.5,18.5-14.9-3.7c37-26.1,18.5-33.4,3.7-37.2c-18.8-4.8-27.8-1.8-24.1-11.1C561.3,297.6,541,292,541,292z"/>
<path class="st1" d="M0,0v1080h1080V0H0z M589.9,937.4c-55.4-4.4-107.7-55.5-178.6-57.7c-19.3-0.6-42.2,40-62.7,39.3
	c-20-0.7-38.8-6.5-60-7.4c-22.7-1-44.5,36.1-68.5,35c-53.2-2.6-109.8-5.5-170.1-9c-7-0.4-11.3-7.8-8.4-14.3l2.3-4.9
	c0.9-1.8,1.2-3.9,1.1-5.9l-0.7-11c-0.2-3.9,1.5-7.8,4.5-10.2l22.3-17.9c2-1.6,3.3-3.5,4-6l6.5-21c1.1-3.7,3.9-6.6,7.4-7.8l4-1.5
	c5-1.8,8.3-6.8,7.9-12.2l-2.3-36.3c-0.4-6.6,1.8-12.9,6.1-17.9l6.1-6.8c2.9-3.4,5-7.4,5.7-11.8l1-5.1c1.2-6.8,5.4-12.9,11.3-16.6
	l34-21c6.7-4.1,11.7-10.6,14-18.1l14.1-45.9c2.4-8,8.4-14.6,16.2-17.9l60.2-25.4c3.4-1.5,6-4.5,6.8-8.2l12.3-53.9
	c0.6-2.8,2.3-5.4,4.8-7l19.1-13.2c2.4-1.7,4.1-4.3,4.8-7.2L318,500c0.5-2.2,1.6-4.3,3.2-6l34.8-34.1c2-2,4.6-3.2,7.4-3.3
	c6-0.4,10.6-5.2,10.9-11.1l5.2-132.1c0.1-2,0.6-3.9,1.7-5.6l10.2-16.7l22-36c1.1-1.8,2.7-3.3,4.5-4.3l108.9-57.6l58.5-26.7
	c2-0.9,4-1.2,6.1-1l44.6,5.1c2.9,0.4,6-0.5,8.4-2.3l32.1-24.4c1-0.7,2.2-1.3,3.4-1.8l107.4-35.5c1.3-0.5,2.7-0.6,4.1-0.6l18.2,0.7
	c9.6,0.4,18.5,5.1,24.3,12.9l7.2,9.8c3.9,5.2,5,12,3,18.1l-9.4,29.9c-2,6.1-0.9,12.7,2.8,17.8l22.7,31.8c1.3,1.8,2.3,3.9,2.9,6.1
	l9.4,32c1,3.3,1.1,6.7,0.4,10l-13.8,62.9c-1.5,6.8,1.2,14,6.8,18.2l14,10.4l13.4,36.3l1.8,29.6c0.1,2.4,0.9,4.9,2,7.1l11.1,21.6
	c1.3,2.6,2,5.5,2,8.3l-0.9,66.1c0,2.6,0.5,5.2,1.6,7.6l13.1,28.7c1.7,3.8,2.1,7.9,1,12l-19.5,73.4l-8.5,68.4c-0.1,0.6-0.2,1.3-0.4,2
	l-7.8,38.9c-2.1,10.2,2,20.6,10.4,26.8l46.7,34.5l44.5,24.3c4.9,2.7,8.9,6.8,11.3,11.8l19.8,41C1021.6,905,999.6,969.6,589.9,937.4z
	"/>
<path class="st2" d="M41.5,923.2l2.3-4.9c0.9-1.8,1.2-3.9,1.1-5.9l-0.7-11c-0.2-3.9,1.5-7.8,4.5-10.2l22.3-17.9c2-1.6,3.3-3.5,4-6
	l6.5-21c1.1-3.7,3.9-6.6,7.4-7.8l4-1.5c5-1.8,8.3-6.8,7.9-12.2l-2.3-36.3c-0.4-6.6,1.8-12.9,6.1-17.9l6.1-6.8
	c2.9-3.4,5-7.4,5.7-11.8l1-5.1c1.2-6.8,5.4-12.9,11.3-16.6l34-21c6.7-4.1,11.7-10.6,14-18.1l14.1-45.9c2.4-8,8.4-14.6,16.2-17.9
	l60.2-25.4c3.4-1.5,6-4.5,6.8-8.2l12.3-53.9c0.6-2.8,2.3-5.4,4.8-7l19.1-13.2c2.4-1.7,4.1-4.3,4.8-7.2L318,500
	c0.5-2.2,1.6-4.3,3.2-6l34.8-34.1c2-2,4.6-3.2,7.4-3.3l0,0c6-0.4,10.6-5.2,10.9-11.1l5.2-132.1c0.1-2,0.6-3.9,1.7-5.6l10.2-16.7
	l22-36c1.1-1.8,2.7-3.3,4.5-4.3l108.9-57.6l58.5-26.7c2-0.9,4-1.2,6.1-1l44.6,5.1c2.9,0.4,6-0.5,8.4-2.3l32.1-24.4
	c1-0.7,2.2-1.3,3.4-1.8l107.4-35.5c1.3-0.5,2.7-0.6,4.1-0.6l18.2,0.7c9.6,0.4,18.5,5.1,24.3,12.9l7.2,9.8c3.9,5.2,5,12,3,18.1
	l-9.4,29.9c-2,6.1-0.9,12.7,2.8,17.8l22.7,31.8c1.3,1.8,2.3,3.9,2.9,6.1l9.4,32c1,3.3,1.1,6.7,0.4,10l-13.8,62.9
	c-1.5,6.8,1.2,14,6.8,18.2l14,10.4l13.4,36.3l1.8,29.6c0.1,2.4,0.9,4.9,2,7.1l11.1,21.6c1.3,2.6,2,5.5,2,8.3l-0.9,66.1
	c0,2.6,0.5,5.2,1.6,7.6l13.1,28.7c1.7,3.8,2.1,7.9,1,12l-19.5,73.4l-8.5,68.4c-0.1,0.6-0.2,1.3-0.4,2l-7.8,38.9
	c-2.1,10.2,2,20.6,10.4,26.8l46.7,34.5l44.5,24.3c4.9,2.7,8.9,6.8,11.3,11.8l19.8,41c0,0-22.1,64.6-431.7,32.4
	c-55.4-4.4-107.7-55.5-178.6-57.7c-19.3-0.6-42.2,40-62.7,39.3c-20-0.7-38.8-6.5-60-7.4c-22.7-1-44.5,36.1-68.5,35
	c-53.2-2.6-109.8-5.5-170.1-9C43,937.2,38.6,929.7,41.5,923.2z"/>
<path class="st2" d="M109.1,837.1l11.2-65.3c0.6-3.8,3.4-7,7.1-8.2l66.6-21.1c4.5-1.5,7.6-5.9,7.2-10.6l-1-16.3
	c-0.2-4.3,2.1-8.3,6-10.1l36.8-12.9c2.6-1.2,4.5-3.4,5.5-6.1L289.7,540c1-2.9,3.3-5.4,6.2-6.5l52.3-20.9c3-1.1,5.6-3.4,7.2-6.3
	l10.9-21.5c2.1-4.1,6.2-6.8,10.9-7.1l50-3.2c5.6-0.4,10.4-4.3,11.8-9.6l21.2-78.1c1.2-4.5,5.2-7.8,9.9-8l5.1-0.4"/>
<polyline class="st2" points="435.6,310.5 475.2,259.7 532.7,256 602.8,216.2 721.2,175.4 "/>
<polyline class="st2" points="879.9,809.6 870.6,839.9 937,858.1 983.2,929.7 "/>
<path class="st2" d="M94.7,873.4l46-20.6c7.2-3.3,15.7-2,21.7,3.3l36.3,32.1c2.1,1.8,3.8,4,4.9,6.5L219,927"/>
<path class="st2" d="M557.1,379.2c0,0,16.6-22.2,56.6-27.4c3.2-0.4,4.5-4.3,2.3-6.6c-7.3-7.7-17.9-20.5-22-25.6
	c-1.1-1.3-2.8-2.2-4.5-2.4l-31.2-2.7c-1.8-0.1-3-1.8-2.7-3.7c1.3-5.5,7.4-13.9,5.4-17.6c-1.3-2.3-26,1.6-26,1.6"/>
</svg>
